<svg xmlns="http://www.w3.org/2000/svg" viewBox="0 0 27.8 32.2"><path fill="#333" d="M11.9 21.7c-.3.5-.7.8-1.2.8h-.3c-.5 0-1-.2-1.4-.4.1.4 0 .9-.1 1.3-.4 1-1.5 1.5-3.1 1.6-.2 0-.5-.2-.5-.5s.2-.5.4-.5c.9 0 2-.3 2.3-1 .3-.8-.3-2-.6-2.5-2.1-2.4-2.2-4.4-2.2-4.5 0-.3.2-.5.5-.5s.5.2.5.5c0 0 .1 1.8 2 3.9.2.2.4.5.5.8.1 0 .2 0 .3.1.3.2 1 .7 1.7.6.2 0 .4-.2.6-.4.1-.2.4-.3.7-.1 0 .3.1.6-.1.8zm-2-4c-.4.3-.8.4-1.1.4-.2 0-.3 0-.4-.1-.9-.3-1.4-1.3-1.4-1.4-.7-1.6-1.3-1.5-1.3-1.5-.2.1-.5-.1-.6-.3-.1-.2.1-.5.3-.6.1 0 1.4-.4 2.4 2 .1.2.4.7.8.9.2.1.4 0 .7-.2.2-.1.5-.1.7.1.1.2.1.5-.1.7zm1.1-4.9c-.1.2-.3.3-.4.3h-.2c-.2-.1-.4-.4-.3-.6 1.2-3 .1-7.4.1-7.5-.1-.3.1-.5.3-.6.3-.1.5.1.6.3.1.2 1.3 4.8-.1 8.1zm1.3 15.4h-.1c-.2 0-.4-.1-.5-.4-.5-1.8-2.2-2.1-2.2-2.1-.3 0-.4-.3-.4-.5 0-.3.3-.4.5-.4.1 0 2.4.4 3 2.8.1.2 0 .5-.3.6zm-1.6 1.7h-.4c-2.1 0-4.3-3.6-4.6-4-.1-.2-.1-.5.2-.6.2-.1.5-.1.6.2.9 1.5 2.8 3.8 4 3.5.3-.1.5.1.6.4 0 .2-.2.5-.4.5zM5.6 23c-2-.3-2.5-3.4-2.5-3.6v-.1c.2-2.9-.7-3.9-.7-3.9-.2-.2-.2-.5 0-.7.2-.2.5-.2.7 0-.1.1 1.1 1.3.9 4.7.1.8.6 2.6 1.7 2.7.3 0 .4.3.4.5-.1.2-.3.4-.5.4zM9.9 3.4s-.9.5-1 1.2c0 .6.4 1.4 1.2 2.2.2.2.2.5 0 .7-.1.1-.2.2-.3.2-.1 0-.2 0-.3-.1-.2-.3-.4-.5-.6-.7.1.1.1.3 0 .4-.1.1-1.7 2.2-.5 4.3v.1c.1.2.6 2.2.1 3.3-.1.2-.3.3-.4.3h-.2c-.2-.1-.3-.4-.2-.6.3-.7 0-2.1-.1-2.6-1.6-2.7.4-5.3.5-5.4.1-.2.4-.2.6-.1-.5-.8-.8-1.5-.7-2.1.2-1.3 1.4-1.9 1.5-1.9.2-.1.5 0 .6.2.1.2 0 .4-.2.6zm3.3 11.3c-.3 1.1-1.6 1.3-2.4 1.3h-.7c-.3 0-.4-.3-.4-.5 0-.3.3-.4.5-.4.6.1 1.9.1 2.1-.5.1-.3.3-.4.6-.3.2-.1.4.1.3.4zm14.4 5.5c-.1.5-.4.9-.7 1.3.1.5.1 3.1-3 5.5-1.2.9-2.3 2.2-3.4 3.9v.1c-.1.1-1.4 1.1-3 1.1-.3 0-.6 0-.9-.1-1.1-.3-2-1.2-2.7-2.7-.7 1.5-1.5 2.4-2.7 2.7-.3.1-.6.1-.9.1-1.6 0-2.9-1.1-3-1.1l-.1-.1c-1-1.7-2.2-3-3.4-3.9-3.2-2.4-3.1-4.9-3-5.5-.3-.4-.5-.8-.7-1.3-.6-2.1.5-4.3.7-4.6-.7-4.4 1.1-5.8 1.7-6.2C2.3 6.5 3.9 5.3 4.4 5c0-.5.2-1 .5-1.5 1-1.7 3.3-2.3 3.6-2.4C9.2.4 10 0 10.8 0c1.4 0 2.5 1.2 3 1.9.5-.7 1.6-1.9 3-1.9.8 0 1.6.4 2.4 1.2.3.1 2.6.6 3.6 2.4.4.4.5.9.6 1.4.5.3 2.1 1.5 1.9 4.4.6.4 2.4 1.8 1.7 6.2.1.3 1.2 2.5.6 4.6zM13.4 2.7c-.3-.4-1.3-1.8-2.5-1.8-.8 0-1.7.6-2.5 1.9-.2.3-.5.3-.7.2-.2-.1-.2-.3-.2-.5-.6.3-1.4.8-1.8 1.5-.4.7-.4 1.6-.1 2.5 0 .3-.1.5-.3.6h-.1c-.3 0-.5-.1-.5-.3-.1-.2-.1-.5-.2-.7-.7.6-1.7 2.2-.4 5.7.1.2 0 .5-.3.6h-.2c-.2 0-.4-.1-.4-.3-.2-.5-.4-1.1-.5-1.7-.6.6-1.6 2.1-.7 6 0 .3-.1.5-.4.6h-.1l-.2-.1c-.5 1.3-.9 3.7 1.4 5 .3.1.3.4.2.7-.1.2-.2.2-.4.2l-.2-.1c-.2-.1-.3-.2-.5-.3.2.9.7 2.4 2.6 3.8 1.3 1 2.5 2.3 3.6 4.1.3.2 1.7 1.2 3 .8 1-.3 1.8-1.3 2.4-3V2.7zm13.1 14.2l-.2.1h-.1c-.3-.1-.4-.3-.4-.6.9-3.9-.1-5.4-.7-6-.1.5-.3 1.1-.5 1.8-.1.2-.3.3-.4.3H24c-.2-.1-.4-.4-.3-.6 1.4-3.5.3-5.1-.4-5.7 0 .2-.1.5-.2.7-.1.2-.2.3-.4.3h-.1c-.2-.1-.4-.3-.3-.6.3-1 .3-1.8-.1-2.5s-1.1-1.2-1.8-1.5c0 .2 0 .4-.2.5-.2.1-.5.1-.6-.1-.8-1.3-1.6-1.9-2.5-1.9-1.1 0-2.1 1.2-2.5 1.8v25.4c.6 1.7 1.4 2.7 2.4 3 1.3.4 2.7-.6 3-.8 1.1-1.8 2.3-3.1 3.6-4.1 1.9-1.4 2.5-2.9 2.6-3.8-.1.1-.3.2-.5.3l-.2.1c-.2 0-.3-.1-.4-.2-.1-.2 0-.5.2-.6.9-.5 1.4-1.2 1.7-2 0-1.3-.2-2.5-.5-3.3zm-6.1 3.8c-.4.4-1 1.6-.6 2.5.3.8 1.4 1 2.3 1 .3 0 .5.2.4.5 0 .3-.2.4-.5.4-1.7-.1-2.7-.6-3.1-1.6-.2-.4-.2-.9-.1-1.3-.4.2-.9.4-1.4.4h-.3c-.5-.1-.9-.4-1.2-.8-.1-.2-.1-.5.1-.7.2-.1.5-.1.7.1.2.2.3.4.6.4.6.1 1.4-.4 1.7-.6.1-.1.2-.1.3-.1.2-.4.4-.7.5-.8 1.9-2.1 2-3.8 2-3.9 0-.3.2-.5.5-.5s.5.2.5.5c-.2.1-.2 2.1-2.4 4.5zm-3-7.7h-.2c-.2 0-.4-.1-.4-.3-1.4-3.3-.2-7.9-.1-8.1.1-.3.3-.4.6-.3.3.1.4.3.3.6 0 0-1.1 4.5.1 7.5.1.2 0 .5-.3.6zm.9 12.8c-.1 0-1.8.3-2.2 2.1-.1.2-.2.4-.5.4h-.1c-.2-.1-.4-.3-.3-.6.6-2.4 2.9-2.7 3-2.8.2 0 .5.1.5.4 0 .2-.1.4-.4.5zm3.8.2c-.3.4-2.5 4-4.6 4h-.4c-.3-.1-.4-.3-.4-.6.1-.3.3-.4.6-.4 1.2.3 3.1-2 4-3.5.1-.2.4-.3.6-.2.3.2.4.4.2.7zm3.5-10.6s-.9 1.1-.7 3.9v.1c0 .1-.5 3.3-2.5 3.6h-.1c-.2 0-.4-.2-.5-.4 0-.3.1-.5.4-.5 1-.1 1.5-2 1.7-2.7-.2-3.3 1-4.5 1-4.6.2-.2.5-.2.7 0 .1.1.1.4 0 .6zm-7.8.5h-.7c-.8 0-2.1-.2-2.4-1.3-.1-.3.1-.5.3-.6.3-.1.5.1.6.3.2.7 1.7.6 2.1.5.2 0 .5.1.5.4 0 .4-.2.7-.4.7z"/><path fill="#F7DE2E" d="M22.7 14.8c-.1.2-.3.4-.6.3 0 0-.7 0-1.3 1.5 0 .1-.5 1.1-1.4 1.4-.1 0-.3.1-.4.1-.3 0-.7-.1-1.1-.4-.2-.1-.3-.4-.1-.7.1-.2.4-.3.7-.1.3.2.5.2.7.2.4-.1.7-.7.8-.8 1-2.4 2.3-2.1 2.4-2 .3 0 .4.3.3.5zm-3-8.1c.1.1 2.1 2.7.6 5.3-.2.7-.4 2-.1 2.6.1.2 0 .5-.2.6h-.2c-.2 0-.4-.1-.4-.3-.5-1.1 0-3.1.1-3.3v-.1c1.2-2-.5-4.2-.5-4.2-.1-.1-.1-.3-.1-.4-.2.2-.3.4-.5.6-.1.1-.2.1-.3.1-.1 0-.3-.1-.3-.2-.2-.2-.2-.5 0-.7.8-.7 1.2-1.5 1.1-2.1-.1-.8-.9-1.2-1-1.2-.2-.1-.3-.4-.2-.6.1-.2.4-.3.6-.2.1 0 1.3.7 1.5 1.9.1.7-.1 1.4-.7 2.1.2-.1.5-.1.6.1z"/></svg>