<svg xmlns="http://www.w3.org/2000/svg" viewBox="0 0 29.3 32.2"><path fill="#333" d="M12 30.1V17.5l9.5-9.3v-.7H0v.7l9.5 9.3v12.6H6l-.8 2.1h11l-.7-2.1H12"/><path fill="#E9E9E9" d="M6.6 31.2s0-.1 0 0c.9-.1 2.8-.1 2.8-.1.5 0 1-.4 1-1V17.5c0-.3-.1-.5-.3-.7 0 0-6.9-6.9-8.5-8.4h18.2c-1.6 1.5-8.5 8.4-8.5 8.4-.2.2-.3.5-.3.7v12.6c0 .5.4 1 1 1h2.8v.1H6.6"/><path fill="#ECCE09" d="M16.6 14.9c-.2-.2-.4-.4-.4-.7v-.1c0-.3.1-.5.3-.7l.9-.9c.1-.1.2-.2.3-.2 0-.1.1-.2.2-.3l2.8-2.8c.3-.2.5-.3.7-.3h.2v-.2c0-.2.1-.5.2-.6 0 0 .3-.4.4-.5h-.4c-.3 0-.6-.2-.8-.4-.2.3-.5.4-.8.4h-.8s-2.9-.9-3.1-1c0 .1-.1.2-.1.4-.1.4-.5.7-.9.7H14c-.3 0-.6-.1-.7-.4-.2-.2-.3-.4-.3-.6v-.2c.3-1.6 1.1-3 2.2-4.1C16.8.8 18.9 0 21.1 0s4.2.8 5.8 2.4c1.6 1.5 2.4 3.6 2.4 5.7 0 2.2-.9 4.2-2.4 5.7s-3.6 2.4-5.8 2.4c-1.6 0-3.1-.4-4.5-1.3M5.7 7.6c-.3 0-.5-.1-.7-.2L1.3 3.7c-.2-.1-.3-.4-.3-.6 0-.3.1-.5.3-.7l.9-.9c.2-.2.4-.3.7-.3.2 0 .5.1.7.3L8.2 6c.2.2.3.4.3.7 0 .1 0 .2-.1.4-.2.3-.5.5-.9.5H5.7"/><path fill="#E9E9E9" d="M24.7 11.8l-2.1-3.1.4-.5 3.2-.9c0 .3.1.5.1.8 0 1.5-.6 2.8-1.6 3.7zm-2.1-5.1h-.8V3c1.7.3 3.1 1.3 3.9 2.8l-3.1.9zm-1.5 6.6c-.9 0-1.7-.2-2.5-.6l2.8-2.8 2 2.9c-.7.3-1.5.5-2.3.5zm-1.3-6.6l-3.3-1.1c.8-1.4 2.1-2.3 3.8-2.6v3.7h-.5zm6.4 6.5c-1.4 1.4-3.2 2.1-5.1 2.1-1.4 0-2.8-.4-3.9-1.1l.9-.9c.9.5 1.9.8 3 .8 3.3 0 5.9-2.6 5.9-5.9 0-3.2-2.7-5.9-5.9-5.9-2.8 0-5.1 1.9-5.8 4.4H14c.3-1.4 1-2.6 2-3.6C17.3 1.7 19.2 1 21.1 1c1.9 0 3.8.7 5.1 2.1 1.4 1.4 2.1 3.1 2.1 5.1 0 1.8-.7 3.6-2.1 5zM5.7 6.7L2 3.1l.9-.9 4.6 4.5H5.7z"/></svg>