<svg xmlns="http://www.w3.org/2000/svg" viewBox="0 0 28.3 25.9"><path fill="#333" d="M26.6 21.7H1.7C.8 21.7 0 20.9 0 20V1.8C0 .8.8 0 1.7 0h24.9c.9 0 1.7.8 1.7 1.8V20c0 .9-.8 1.7-1.7 1.7zm-.4-19.2h-24v16.2h24V2.5zM7.7 25.9l3.3-3.4h6.4l3.3 3.4h-13z"/><path fill="#E9E9E9" d="M10 25l1.4-1.4H17l1.4 1.4H10m-8.3-4.2c-.4 0-.7-.4-.7-.8V1.8c0-.5.3-.8.7-.8h24.9c.4 0 .8.4.8.8V20c0 .4-.3.8-.8.8H1.7M1.2 2.5v16.2c0 .5.4 1 1 1h24c.5 0 1-.4 1-1V2.5c0-.5-.4-1-1-1h-24c-.6 0-1 .4-1 1"/><path fill="#ECCE09" d="M12.8 9.9c-.6 0-1.2-.5-1.2-1.2s.5-1.2 1.2-1.2S14 8 14 8.7s-.5 1.2-1.2 1.2zm4.7 3.8c-.6 0-1.2-.5-1.2-1.2 0-.6.5-1.2 1.2-1.2.6 0 1.2.5 1.2 1.2-.1.6-.6 1.2-1.2 1.2zm4.6-4.1c-.6 0-1.2-.5-1.2-1.2s.5-1.2 1.2-1.2c.6 0 1.2.5 1.2 1.2s-.6 1.2-1.2 1.2zM5.8 15.4c-.6 0-1.2-.5-1.2-1.2 0-.6.5-1.2 1.2-1.2.6 0 1.2.5 1.2 1.2s-.5 1.2-1.2 1.2zm11.6-2.2s-4.3-3.7-4.6-4c-.4.2-6.9 5.6-6.9 5.6l-.4-.7 7.4-5.9s4.1 3.5 4.5 3.9c.5-.4 4.4-4 4.4-4l.5.6-4.9 4.5z"/></svg>