<svg xmlns="http://www.w3.org/2000/svg" viewBox="0 0 25 27.4"><path fill="#ECCE09" d="M23.2 26.9c-.4.3-.9.2-1.2-.2 0 0-3.5-4.8-8-4.8-1.9 0-3.4 1.3-5 2.6-1.6 1.4-3.3 2.8-5.6 2.8-.6 0-1.2-.1-1.9-.3l-.2-.1c-1-.7-1.3-1.5-1.3-2.1-.1-1.6 1.5-3 1.7-3.2 0 0 .1 0 .1-.1l.2 1.3-.1.1c-.4.3-.7 1.1-.6 1.8 0 .1.5.8 1 1.2 2.3.7 3.9-.7 5.7-2.2 1.6-1.4 3.5-3 6.1-3 5.4 0 9.3 5.3 9.4 5.5.2.4.1.4-.3.7z"/><path fill="#333" d="M1.3 21c0-.5.2-.9.6-1.3C2 19.7 11.7 8 11.7 8c.1-.1.2-.2.4-.2h.1c.2 0 .3.1.4.3.4 1 1 1.8 1.7 2.5s1.6 1.3 2.6 1.7c.2.1.3.2.3.4v.1c0 .1-.1.3-.2.4L5.2 22.8c-.2.2-.5.3-.9.3-1.3 0-3-.8-3-2.1M14.8 9.6c-1.3-1.3-2.1-3.1-2.1-4.9 0-1 .3-2 .8-2.9.1-.1.2-.2.4-.2h.1c.2 0 .3.2.4.3.6 2.3 1.7 4.3 3 5.6 1.2 1.2 3.3 2.3 5.6 2.9.2.1.3.2.3.4v.1c0 .2-.1.3-.2.4-.7.4-1.6.7-2.5.7-2.1.1-4.3-.9-5.8-2.4m8.9.4c-2.2-.4-4.2-1.4-5.8-3-1.6-1.6-2.6-3.6-3-5.8v-.1c0-.2.1-.3.2-.4.8-.4 1.8-.7 2.8-.7 1.8 0 3.6.8 4.9 2.1C24.2 3.4 25 5.2 25 7c0 1-.3 2-.8 2.9-.1.1-.3.2-.5.1 0 .1 0 .1 0 0"/><path fill="#E9E9E9" d="M2.3 21c0-.2.2-.5.4-.7 0 0 8.4-10.1 9.3-11.2.4.8 1 1.5 1.6 2.2.6.6 1.4 1.2 2.2 1.6-1.1.9-11.3 9.2-11.3 9.2h-.3c-.8.1-1.9-.5-1.9-1.1M15.4 8.9c-1.2-1.2-1.8-2.7-1.8-4.2 0-.4.1-.9.2-1.3.5 1.4 1.4 3.4 2.8 4.8s3.3 2.3 4.7 2.8c-.3 0-.5.1-.8.1-1.7 0-3.7-.8-5.1-2.2m3.1-2.5c-1.4-1.4-2.3-3-2.7-4.9.7-.4 1.4-.5 2.1-.5 1.5 0 3.1.7 4.2 1.8C23.3 3.9 24 5.5 24 7c0 .7-.2 1.5-.5 2.1-1.9-.5-3.6-1.4-5-2.7"/></svg>